<?xml version="1.0" encoding="UTF-8" standalone="no"?>
<!-- Created with Inkscape (http://www.inkscape.org/) -->

<svg
   width="135.46666mm"
   height="135.46666mm"
   viewBox="0 0 135.46666 135.46666"
   version="1.1"
   id="svg1"
   inkscape:export-filename="favicon-zentry-white.png"
   inkscape:export-xdpi="96"
   inkscape:export-ydpi="96"
   xmlns:inkscape="http://www.inkscape.org/namespaces/inkscape"
   xmlns:sodipodi="http://sodipodi.sourceforge.net/DTD/sodipodi-0.dtd"
   xmlns="http://www.w3.org/2000/svg"
   xmlns:svg="http://www.w3.org/2000/svg">
  <sodipodi:namedview
     id="namedview1"
     pagecolor="#ffffff"
     bordercolor="#000000"
     borderopacity="0.25"
     inkscape:showpageshadow="2"
     inkscape:pageopacity="0.0"
     inkscape:pagecheckerboard="0"
     inkscape:deskcolor="#d1d1d1"
     inkscape:document-units="px"
     showguides="true"
     showgrid="false"
     inkscape:zoom="1.0267829"
     inkscape:cx="434.36639"
     inkscape:cy="289.73992"
     inkscape:window-width="1920"
     inkscape:window-height="1017"
     inkscape:window-x="-8"
     inkscape:window-y="-8"
     inkscape:window-maximized="1"
     inkscape:current-layer="layer1">
    <inkscape:page
       x="0"
       y="0"
       width="135.46666"
       height="135.46666"
       id="page1"
       margin="0"
       bleed="0" />
    <inkscape:grid
       id="grid1"
       units="px"
       originx="0"
       originy="0"
       spacingx="0.26458334"
       spacingy="0.26458334"
       empcolor="#0099e5"
       empopacity="0.30196078"
       color="#0099e5"
       opacity="0.14901961"
       empspacing="5"
       enabled="true"
       visible="false" />
  </sodipodi:namedview>
  <defs
     id="defs1" />
  <g
     inkscape:label="Capa 1"
     inkscape:groupmode="layer"
     id="layer1"
     transform="translate(7.7304557,5.9266827)">
    <text
       xml:space="preserve"
       style="font-style:normal;font-variant:normal;font-weight:bold;font-stretch:normal;font-size:114.014px;font-family:'CMU Typewriter Text';-inkscape-font-specification:'CMU Typewriter Text Bold';text-align:start;writing-mode:lr-tb;direction:ltr;text-anchor:start;fill:#000000;stroke-width:4.2755"
       x="30.017244"
       y="96.637817"
       id="text1"><tspan
         sodipodi:role="line"
         id="tspan1"
         style="font-size:114.014px;stroke-width:4.2755"
         x="30.017244"
         y="96.637817">Z</tspan></text>
    <path
       style="fill:#000000;stroke-width:0.973916"
       d="m 170.64207,385.19347 c -3.00472,-1.36373 -4.57522,-2.85118 -5.60002,-5.30387 -1.99791,-4.78166 -1.7908,-14.75289 0.40588,-19.5408 0.98302,-2.14261 31.87087,-48.55631 68.63967,-103.14154 36.76879,-54.58523 66.85235,-99.61666 66.85235,-100.06984 0,-0.45317 -21.91311,-0.82395 -48.69579,-0.82395 h -48.69578 v 15.63101 c 0,12.28353 -0.32669,16.26276 -1.52546,18.58093 -2.14248,4.1431 -8.14613,6.64494 -16.00502,6.66961 -7.23458,0.0227 -11.9092,-1.88599 -15.02647,-6.13548 -1.92753,-2.62764 -2.01706,-3.96962 -2.01706,-30.23422 0,-24.98111 0.16214,-27.73199 1.78011,-30.20132 3.68425,-5.62288 1.33487,-5.47597 87.54537,-5.47432 88.50583,0.002 84.1073,-0.34022 87.68219,6.8159 2.06818,4.14005 2.27876,14.27405 0.39052,18.79327 -0.72345,1.73143 -31.62092,48.21065 -68.66106,103.28716 -37.04014,55.0765 -67.34571,100.53984 -67.34571,101.02963 0,0.527 21.24844,0.89054 52.05081,0.89054 h 52.05082 l 0.29715,-20.87741 0.29715,-20.8774 2.82314,-2.94456 c 4.85115,-5.05977 17.66319,-6.29515 25.14762,-2.42479 5.87163,3.03633 6.11629,4.57767 6.11629,38.53098 0,29.66898 -0.0772,30.95571 -2.01705,33.60009 -1.10939,1.51233 -3.51983,3.51597 -5.35654,4.45253 -3.1018,1.58164 -9.16208,1.70142 -85.1484,1.68296 -78.9494,-0.0192 -81.95487,-0.0861 -85.98471,-1.91511 z"
       id="path1"
       transform="matrix(0.26458334,0,0,0.26458334,-7.7304557,-5.9266827)" />
    <path
       style="fill:#ffffff;stroke-width:3.02362201;fill-opacity:1;stroke:#ffffff;stroke-opacity:1;stroke-dasharray:none"
       d="m 170.64207,385.19347 c -3.00472,-1.36373 -4.57522,-2.85118 -5.60002,-5.30387 -1.9963,-4.77782 -1.7906,-14.75187 0.40299,-19.5408 0.98144,-2.14261 31.65703,-48.25175 68.16798,-102.46476 36.51096,-54.21301 66.6427,-99.24443 66.95944,-100.06984 0.51397,-1.3394 -4.67037,-1.50073 -48.2241,-1.50073 h -48.79998 v 15.63101 c 0,12.28353 -0.32669,16.26276 -1.52546,18.58093 -2.14248,4.1431 -8.14613,6.64494 -16.00502,6.66961 -7.23458,0.0227 -11.9092,-1.88599 -15.02647,-6.13548 -1.92753,-2.62764 -2.01706,-3.96962 -2.01706,-30.23422 0,-24.98111 0.16214,-27.73199 1.78011,-30.20132 3.68425,-5.62288 1.33487,-5.47597 87.54537,-5.47432 88.50583,0.002 84.1073,-0.34022 87.68219,6.8159 2.06584,4.13536 2.27948,14.27307 0.39573,18.77915 -0.72057,1.72367 -31.39074,47.88907 -68.15592,102.58978 -36.76517,54.7007 -67.11998,100.17039 -67.45512,101.04375 -0.55863,1.45577 3.73121,1.58792 51.54567,1.58792 h 52.15502 l 0.29715,-20.87741 0.29715,-20.8774 2.82314,-2.94456 c 4.85115,-5.05977 17.66319,-6.29515 25.14762,-2.42479 5.87163,3.03633 6.11629,4.57767 6.11629,38.53098 0,29.66898 -0.0772,30.95571 -2.01705,33.60009 -1.10939,1.51233 -3.51983,3.51597 -5.35654,4.45253 -3.1018,1.58164 -9.16208,1.70142 -85.1484,1.68296 -78.9494,-0.0192 -81.95487,-0.0861 -85.98471,-1.91511 z"
       id="path2"
       transform="matrix(0.26458334,0,0,0.26458334,-7.7304557,-5.9266827)" />
  </g>
</svg>
